<?xml version="1.0" encoding="utf-8"?>
<!-- Generator: Adobe Illustrator 23.0.2, SVG Export Plug-In . SVG Version: 6.00 Build 0)  -->
<svg version="1.1" id="Слой_1" xmlns="http://www.w3.org/2000/svg" xmlns:xlink="http://www.w3.org/1999/xlink" x="0px" y="0px"
	 viewBox="0 0 28 34.9" style="enable-background:new 0 0 28 34.9;" xml:space="preserve">
<style type="text/css">
	.st0{fill:#333333;}
</style>
<path class="st0" d="M21.1,2.1c0,0.4-3.2,0.7-7.1,0.7S6.9,2.5,6.9,2.1c0-0.4,3.2-0.7,7.1-0.7S21.1,1.7,21.1,2.1z M22.2,2.5
	C22,2.9,21,3.6,14,3.6S6,2.9,5.8,2.5C2.5,3.1,0,5.5,0,9v18c0,3.5,2.5,6.3,5.8,6.9c0.2,0.5,1.5,1.1,8.2,1.1s7.9-0.6,8.2-1.1
	c3.3-0.6,5.8-3.4,5.8-6.9V9C28,5.5,25.5,3.1,22.2,2.5z"/>
</svg>
