<?xml version="1.0" encoding="utf-8"?>
<!-- Generator: Adobe Illustrator 23.0.2, SVG Export Plug-In . SVG Version: 6.00 Build 0)  -->
<svg version="1.1" id="Слой_1" xmlns="http://www.w3.org/2000/svg" xmlns:xlink="http://www.w3.org/1999/xlink" x="0px" y="0px"
	 viewBox="0 0 31.2 39.1" style="enable-background:new 0 0 31.2 39.1;" xml:space="preserve">
<style type="text/css">
	.st0{fill:#606060;}
</style>
<title>2</title>
<g>
	<g id="Слой_1-2">
		<rect x="3.5" y="31.7" transform="matrix(0.1511 -0.9885 0.9885 0.1511 -29.2453 31.3515)" class="st0" width="0.3" height="2"/>
		<ellipse class="st0" cx="8.5" cy="2.4" rx="1" ry="0.9"/>
		<line class="st0" x1="2.4" y1="32.9" x2="2.4" y2="32.9"/>
		<path class="st0" d="M4.6,33.7l0.1-0.5l-2.2-0.3l-0.1,0.3c-1.6,0.3-2.6,1.9-2.3,3.4c0.3,1.6,1.9,2.6,3.4,2.3s2.6-1.9,2.3-3.4
			C5.7,34.8,5.2,34.2,4.6,33.7z M2.8,35.7c0.2,0,0.3,0.1,0.3,0.3s-0.1,0.3-0.3,0.3S2.5,36.2,2.5,36l0,0C2.5,35.9,2.6,35.7,2.8,35.7
			C2.8,35.7,2.8,35.7,2.8,35.7L2.8,35.7z M2.9,38c-1,0-1.8-0.7-1.9-1.7c0-0.7,0.3-1.4,1-1.7v0.3v1.4c0,0,0.9,1.4,1.5-0.3
			c0,0,0.4-0.8,0.9-0.8v-0.1C5,35.8,4.8,37,4.1,37.6C3.7,37.8,3.3,38,2.9,38L2.9,38z"/>
		<path class="st0" d="M28.3,32.8c-1.6,0-2.9,1.2-2.9,2.8h-0.2c0,0-0.4-3.1,4.1-3.2c0,0,0.8-0.5,0.3-0.8c-0.4,0.1-0.7,0.1-1.1,0.1
			c-1.5,0-3,0.7-3.9,2L8.6,33.2l-0.6,0.8l16.1,0.5c0,0.1-0.1,0.2-0.1,0.3L8.1,34.3l-0.3-0.5l0.2-0.4l-3-4l2.5-15.6H7.2l1.5-9.9
			L7.8,3.8l-1.5,9.9H5.9L3,32.1l1.7,0.2v-0.1l1.2,1.5c0,0.2,0,0.5,0,0.7c0.6,0,0.3,0.5,0.3,0.5l1.4,1.8h0.6l-0.3-0.6l0.6-0.5
			l0.3-0.4l15.6,0.5L24,37.1h1.8c0.5,0.9,1.5,1.5,2.6,1.5c1.6-0.1,2.8-1.5,2.8-3.1C31,34.1,29.8,32.9,28.3,32.8L28.3,32.8z M5,30.4
			v-0.3l2,2.8c-0.1,0-0.3,0-0.4,0L5,30.4z M6.7,34c-0.2,0-0.3-0.1-0.3-0.3c0-0.2,0.1-0.3,0.3-0.3c0.2,0,0.3,0.1,0.3,0.3c0,0,0,0,0,0
			C7,33.9,6.9,34.1,6.7,34C6.7,34.1,6.7,34.1,6.7,34L6.7,34z M28.3,37.6c-0.4,0.1-0.9-0.1-1.1-0.4h1.3c0.8-1.2,0-1.6,0-1.6h-1.9
			c0.1-0.9,0.9-1.6,1.8-1.6c1,0,1.8,0.8,1.8,1.8C30.1,36.8,29.3,37.6,28.3,37.6z M27.9,36.2c0-0.2,0.1-0.3,0.3-0.3
			c0.2,0,0.3,0.1,0.3,0.3c0,0.2-0.1,0.3-0.3,0.3l0,0C28,36.5,27.8,36.4,27.9,36.2C27.8,36.2,27.8,36.2,27.9,36.2L27.9,36.2z"/>
	</g>
</g>
</svg>
